<?xml version="1.0" encoding="utf-8" ?>
<svg baseProfile="full" height="200mm" version="1.1" viewBox="0,0,200,200" width="200mm" xmlns="http://www.w3.org/2000/svg" xmlns:ev="http://www.w3.org/2001/xml-events" xmlns:xlink="http://www.w3.org/1999/xlink"><defs /><rect fill="#1a1a1a" height="200" width="200" x="0" y="0" /><rect fill="#1a1a1a" height="200" width="180" x="10" y="0" /><text alignment-baseline="middle" fill="#e1ed5e" style="dominant-baseline: central; font-size:9.0px; font-family:Arial;" text-anchor="middle" x="100.0" y="100.0">2026</text><line stroke="#e1ed5e" stroke-width="0.3" x1="100.0" x2="100.0" y1="15.0" y2="10.0" /><path d="M 100.0 14.0 a86.0,86.0 0 0,1 42.46469731375804,11.215312516191453" fill="none" id="id13" stroke="none" /><text fill="#e1ed5e" style="font-size:6.75px; font-family:Arial;" text-anchor="middle"><textPath startOffset="22.20632615414155" xlink:href="#id13">January</textPath></text><path d="M 100.36148047927253 79.00311137660856 l 1.084441437817585 -62.990665870174325 a84.0,84.0 0 0,0 1.4454934592205289,0.03733283143056143 l -2.1685615322329816 62.9626662466014" fill="red" stroke="none" /><path d="M 100.72285384407766 79.0124445844662 l 0.6864626264853422 -19.930961884054327 a40.94277996070727,40.94277996070727 0 0,0 0.7041362062036093,0.03032158622898275 l -1.029439665078283 19.916192571301146" fill="red" stroke="none" /><path d="M 101.08401301168833 79.027996857942 l 3.1992226840043383 -61.89419080550005 a82.97681728880158,82.97681728880158 0 0,0 1.425770702109573,0.08600638236214624 l -4.264155434953524 61.829951153757605" fill="red" stroke="none" /><path d="M 101.80526077348638 79.07773832637324 l 5.35974475617409 -62.117331711561434 a83.34813359528488,83.34813359528488 0 0,0 1.428328523088976,0.13563700387119249 l -6.428198406353309 62.01586916317506" fill="red" stroke="none" /><path d="M 104.307194497241 79.44645832069477 l 12.721032392342632 -60.70361337229771 a83.0222003929273,83.0222003929273 0 0,0 1.3961854345498146,0.30515205851017624 l -13.764060551045974 60.475647815691666" fill="red" stroke="none" /><path d="M 105.71112130821622 79.79150937346287 l 5.691205315441985 -20.138018974548707 a41.92676817288802,41.92676817288802 0 0,0 0.6928094616778198,0.20225007995007965 l -6.037004994843232 20.037070565679926" fill="red" stroke="none" /><path d="M 106.74666289553966 80.11325718540242 l 20.028906944749668 -59.038035164180826 a83.3429764243615,83.3429764243615 0 0,0 1.354593223264995,0.47259097746199014 l -21.042182172077936 58.68452333354663" fill="red" stroke="none" /><path d="M 107.76421540070413 80.48803036053334 l 23.0089243819688 -57.822897847095305 a83.23261296660118,83.23261296660118 0 0,0 1.326633244582293,0.5411670102421358 l -24.00084149613948 57.41826995066959" fill="red" stroke="none" /><path d="M 108.09893153111575 80.62456947434976 l 6.516139362043567 -15.588847123805326 a37.895923379174846,37.895923379174846 0 0,0 0.5996871834492153,0.256754755555948 l -6.783510303283098 15.474372840286588" fill="red" stroke="none" /><path d="M 110.05341064243156 81.56283822128135 l 30.011603410429636 -55.03891236486938 a83.68953831041256,83.68953831041256 0 0,0 1.2588337689972564,0.7005396295365697 l -30.954561268498928 54.51415733777263" fill="red" stroke="none" /><path d="M 110.36928655335952 81.73862282372117 l 5.093988413885165 -8.971036076480399 a31.316404715127703,31.316404715127703 0 0,0 0.46647017725381645,0.27020963523199 l -5.2476553236043095 8.882022283858358" fill="red" stroke="none" /><line stroke="#e1ed5e" stroke-width="0.3" x1="143.23703022742887" x2="145.7803849466894" y1="26.81831364943548" y2="22.513508569990506" /><path d="M 143.74570117128098 25.957352633546492 a86.0,86.0 0 0,1 28.547481713284135,27.462654790039103" fill="none" id="id14" stroke="none" /><text fill="#e1ed5e" style="font-size:6.75px; font-family:Arial;" text-anchor="middle"><textPath startOffset="19.985693538727396" xlink:href="#id14">February</textPath></text><path d="M 111.2981086023043 82.29822771554956 l 33.72785072927577 -52.844485238158036 a83.69056974459724,83.69056974459724 0 0,0 1.207666774453021,0.7855000635410557 l -34.63248452951308 52.25608625045745" fill="red" stroke="none" /><path d="M 112.19680574252982 82.90503203632743 l 36.07402987247842 -50.5611385479585 a83.11090373280943,83.11090373280943 0 0,0 1.1574368123204526,0.840927067629763 l -36.93901200115266 49.932692245512065" fill="red" stroke="none" /><path d="M 112.48926042617603 83.11751280151076 l 8.930802679012615 -12.072305064970774 a36.01665029469548,36.01665029469548 0 0,0 0.49523553815869475,0.3730011400316953 l -9.137284370929692 11.91678733543323" fill="red" stroke="none" /><path d="M 112.77801427241765 83.33499621200491 l 31.542741616770062 -41.137840146406944 a72.83885068762278,72.83885068762278 0 0,0 0.9884143412178874,0.7714730712890538 l -32.24618851314738 40.58878868589466" fill="red" stroke="none" /><path d="M 113.6212207817346 84.01681056812373 l 40.40203944051832 -47.4078983197941 a83.28831041257368,83.28831041257368 0 0,0 1.0831692416146264,0.9393136926012547 l -41.21210248077971 46.705419633773175" fill="red" stroke="none" /><path d="M 114.16331599549186 84.49514656593476 l 42.11221318364885 -46.10104677495124 a83.43993123772103,83.43993123772103 0 0,0 1.0521064746880295,0.97781830551669 l -42.89952754213172 45.36932388335991" fill="red" stroke="none" /><path d="M 114.42810811169701 84.74124197986012 l 19.21361960866606 -20.319779282910243 a48.96527504911592,48.96527504911592 0 0,0 0.607441649115308,0.5843583851735384 l -19.56054450139379 19.986037810974402" fill="red" stroke="none" /><path d="M 115.19652480421416 85.50635884689758 l 44.91856872506937 -42.84095374434462 a83.07274066797643,83.07274066797643 0 0,0 0.978014102218907,1.0432772541858837 l -45.64935014925874 42.06140707328068" fill="red" stroke="none" /><path d="M 115.9244219780498 86.31012108654704 l 32.33455446928081 -27.797312581584432 a63.640520628683696,63.640520628683696 0 0,0 0.7069837149917181,0.8368457244073917 l -32.808248797759646 27.236607907547935" fill="red" stroke="none" /><line stroke="#e1ed5e" stroke-width="0.3" x1="172.23445277983987" x2="176.4835382374775" y1="55.19839476539836" y2="52.563006222186495" /><path d="M 173.08426987136738 54.67131705675599 a86.0,86.0 0 0,1 12.851231095245387,41.99856678651699" fill="none" id="id15" stroke="none" /><text fill="#e1ed5e" style="font-size:6.75px; font-family:Arial;" text-anchor="middle"><textPath startOffset="22.20632615414155" xlink:href="#id15">March</textPath></text><line stroke="#e1ed5e" stroke-width="0.3" x1="184.98032266829074" x2="189.97916517819016" y1="98.17113171792111" y2="98.06355123074" /><path d="M 185.9800911702706 98.14961562048488 a86.0,86.0 0 0,1 -9.607161424134198,41.387399972396054" fill="none" id="id16" stroke="none" /><text fill="#e1ed5e" style="font-size:6.75px; font-family:Arial;" text-anchor="middle"><textPath startOffset="21.466115282336823" xlink:href="#id16">April</textPath></text><path d="M 120.99824983174949 100.27111621757518 l 30.952822885582805 0.39964341462998326 a51.95540275049116,51.95540275049116 0 0,0 -0.019243136465167215,0.8941529370835135 l -30.941357686432628 -0.9323861675036117" fill="red" stroke="none" /><path d="M 120.92983693683757 101.71520430193887 l 61.59601667084333 5.047805823569507 a82.80250491159134,82.80250491159134 0 0,0 -0.12864119771476762,1.4195448972843467 l -61.50000087685149 -6.107332109402424" fill="red" stroke="none" /><path d="M 120.70491114924044 103.5080841355445 l 60.997115699537865 10.334891676527242 a82.86645383104127,82.86645383104127 0 0,0 -0.2503891098245207,1.4043151005570977 l -60.810180147374155 -11.38332552781756" fill="red" stroke="none" /><path d="M 118.97047184881838 109.00673069616215 l 56.0169335732299 26.59551323444345 a83.0098231827112,83.0098231827112 0 0,0 -0.6239442980180645,1.2855100601136853 l -55.55083601859712 -27.55581225052241" fill="red" stroke="none" /><line stroke="#e1ed5e" stroke-width="0.3" x1="174.80103733775053" x2="179.2010983576182" y1="140.37084112569926" y2="142.7455964860345" /><path d="M 175.68104954172406 140.8457921977663 a86.0,86.0 0 0,1 -30.038265399797805,32.042727171017184" fill="none" id="id17" stroke="none" /><text fill="#e1ed5e" style="font-size:6.75px; font-family:Arial;" text-anchor="middle"><textPath startOffset="22.206326154141568" xlink:href="#id17">May</textPath></text><path d="M 117.55443506779139 111.5257021239791 l 51.931295607472634 34.09649138651204 a83.12431237721023,83.12431237721023 0 0,0 -0.7956061263184961,1.1893232095893822 l -51.33668637574342 -34.98535151030723" fill="red" stroke="none" /><path d="M 117.14729908036423 112.12312394758627 l 50.79508360191197 35.912075222339055 a83.20785854616895,83.20785854616895 0 0,0 -0.8369133884811085,1.1623994980867556 l -50.16939042105526 -36.78110832587694" fill="red" stroke="none" /><path d="M 116.71984013943494 112.70617746262583 l 49.33174051356263 37.489464269885 a82.96031434184675,82.96031434184675 0 0,0 -0.8738217130410766,1.1295323564579007 l -48.679111983303486 -38.33307462045615" fill="red" stroke="none" /><path d="M 116.27256486870786 113.27417163493432 l 24.197048202363966 19.738484589766042 a52.226669941060905,52.226669941060905 0 0,0 -0.5742546191252668,0.6917266820257482 l -23.853697583345156 -20.15207252890556" fill="red" stroke="none" /><path d="M 116.0416608686014 113.55231037782055 l 47.686121844320354 40.286172936976094 a83.42549115913556,83.42549115913556 0 0,0 -0.9361829468755747,1.0889922685912639 l -46.985596387874004 -41.101042304728885" fill="red" stroke="none" /><path d="M 115.56566222782051 114.09645910891815 l 45.94851991916704 41.6115564295231 a82.99022593320237,82.99022593320237 0 0,0 -0.9680359020754526,1.0506117822902654 l -45.22543760909586 -42.3963194666147" fill="red" stroke="none" /><path d="M 115.07121518719521 114.62390073753431 l 44.41419013908212 43.0959746685687 a82.88605108055009,82.88605108055009 0 0,0 -1.002366177334831,1.01539164556551 l -43.66578333669175 -43.85410680811488" fill="red" stroke="none" /><line stroke="#e1ed5e" stroke-width="0.3" x1="143.8653032363475" x2="146.44561519142675" y1="172.8068346515853" y2="177.08958963109032" /><path d="M 144.38136562736335 173.6633856474863 a86.0,86.0 0 0,1 -40.68145358897372,12.25698825130547" fill="none" id="id18" stroke="none" /><text fill="#e1ed5e" style="font-size:6.75px; font-family:Arial;" text-anchor="middle"><textPath startOffset="21.466115282336833" xlink:href="#id18">June</textPath></text><line stroke="#e1ed5e" stroke-width="0.3" x1="102.19456741930631" x2="102.32365962044197" y1="184.97166512339345" y2="189.96999836594603" /><path d="M 102.22038585953345 185.97133177190398 a86.0,86.0 0 0,1 -42.740103519485714,-10.115201625700543" fill="none" id="id19" stroke="none" /><text fill="#e1ed5e" style="font-size:6.75px; font-family:Arial;" text-anchor="middle"><textPath startOffset="22.20632615414155" xlink:href="#id19">July</textPath></text><line stroke="#e1ed5e" stroke-width="0.3" x1="58.666819895761336" x2="56.23545636021788" y1="174.27360380694188" y2="178.64263932499728" /><path d="M 58.180547188652646 175.14741091055294 a86.0,86.0 0 0,1 -31.652253787137756,-30.449443065178592" fill="none" id="id20" stroke="none" /><text fill="#e1ed5e" style="font-size:6.75px; font-family:Arial;" text-anchor="middle"><textPath startOffset="22.20632615414155" xlink:href="#id20">August</textPath></text><line stroke="#e1ed5e" stroke-width="0.3" x1="26.63291911575756" x2="22.317208475507996" y1="142.92168965132927" y2="145.44649492493687" /><path d="M 25.769776987707644 143.4266507060508 a86.0,86.0 0 0,1 -11.730757126820373,-40.83630448921669" fill="none" id="id21" stroke="none" /><text fill="#e1ed5e" style="font-size:6.75px; font-family:Arial;" text-anchor="middle"><textPath startOffset="21.46611528233685" xlink:href="#id21">September</textPath></text><line stroke="#e1ed5e" stroke-width="0.3" x1="15.007084014347285" x2="10.007500721073583" y1="101.09737516637583" y2="101.16192664675087" /><path d="M 14.007167355692545 101.11028546245083 a86.0,86.0 0 0,1 10.666146001902534,-42.60595125391555" fill="none" id="id22" stroke="none" /><text fill="#e1ed5e" style="font-size:6.75px; font-family:Arial;" text-anchor="middle"><textPath startOffset="22.20632615414155" xlink:href="#id22">October</textPath></text><line stroke="#e1ed5e" stroke-width="0.3" x1="26.266209847984243" x2="21.928928074336255" y1="57.711370442889674" y2="55.22380399835377" /><path d="M 25.398753493254645 57.213857153982495 a86.0,86.0 0 0,1 29.58750427330803,-30.492523968695096" fill="none" id="id23" stroke="none" /><text fill="#e1ed5e" style="font-size:6.75px; font-family:Arial;" text-anchor="middle"><textPath startOffset="21.46611528233685" xlink:href="#id23">November</textPath></text><line stroke="#e1ed5e" stroke-width="0.3" x1="56.762969772571076" x2="54.21961505331055" y1="26.818313649435495" y2="22.513508569990535" /><path d="M 56.25429882871897 25.957352633546506 a86.0,86.0 0 0,1 42.265352541879196,-11.944610805530505" fill="none" id="id24" stroke="none" /><text fill="#e1ed5e" style="font-size:6.75px; font-family:Arial;" text-anchor="middle"><textPath startOffset="22.20632615414155" xlink:href="#id24">December</textPath></text></svg>